<!DOCTYPE svg PUBLIC "-//W3C//DTD SVG 1.1//EN" "http://www.w3.org/Graphics/SVG/1.1/DTD/svg11.dtd">
<!-- Uploaded to: SVG Repo, www.svgrepo.com, Transformed by: SVG Repo Mixer Tools -->
<svg fill="#000000" width="800px" height="800px" viewBox="-11.33 0 60.658 60.658" xmlns="http://www.w3.org/2000/svg">
<g id="SVGRepo_bgCarrier" stroke-width="0"/>
<g id="SVGRepo_tracerCarrier" stroke-linecap="round" stroke-linejoin="round"/>
<g id="SVGRepo_iconCarrier"> <g id="_29" data-name="29" transform="translate(-56 -965.171)"> <path id="Path_143" data-name="Path 143" d="M67.9,1011.537c.382.384.871.514,1.091.292l5.564-5.764a1.675,1.675,0,0,0,2.06-2.138l8.266-8.568a.558.558,0,0,0,.139-.538l1.107-1.107-.4-.4-1.108,1.108a.555.555,0,0,0-.539.139l-8.569,8.264a1.671,1.671,0,0,0-.508-.086,1.7,1.7,0,0,0-1.7,1.7,1.639,1.639,0,0,0,.069.45l-5.768,5.562C67.384,1010.668,67.515,1011.157,67.9,1011.537Zm-8.949,14.292H91.054v-2.262H58.947Zm29.731-11.764a16.737,16.737,0,0,1-30.4-9.065h-1.13a17.8,17.8,0,0,0,4.18,10.919v6.516H88.678v-6.516A17.8,17.8,0,0,0,92.856,1005H91.727A16.665,16.665,0,0,1,88.678,1014.065Zm0-25.235a1.137,1.137,0,0,0-1.133-1.133H81.252a17.828,17.828,0,0,0-12.5,0H62.456a1.136,1.136,0,0,0-1.132,1.133v4.122a17.789,17.789,0,0,0-4.18,10.918h1.13a16.737,16.737,0,0,1,33.453,0h1.129a17.8,17.8,0,0,0-4.178-10.918Zm-5.908-9.172H80.507v6.907H82.77ZM56,969.18v1.133h1.132s1.394,8.473,7.5,8.473H85.371c6.1,0,7.5-8.473,7.5-8.473H94V969.18Zm19.566,16.26v-.926h.565v-1.13H73.869v1.13h.566v.926Zm-6.074-5.782H67.23v6.907h2.262ZM75,965.171c-12.39,0-14.329,2.879-14.329,2.879H89.33S87.391,965.171,75,965.171Zm.283,23.818h-.565v2.176h.565Zm15.165,15.163H88.271v.567h2.177Zm-6.263,9.868,1.539,1.538.4-.4-1.539-1.538Zm-9.467,5.863h.565v-2.176h-.565Zm-10.44-4.325,1.538-1.538-.4-.4-1.541,1.538Zm-4.725-10.839H61.73v-.567H59.553Zm6.263-9.867-1.538-1.539-.4.4,1.541,1.538Zm14.835-4.8-.834,2.01.523.216.833-2.008Zm6.5,9.04.216.522,2.01-.833-.215-.522Zm0,10.679,2.011.833.215-.523-2.01-.833Zm-6.5,9.04.522-.216-.833-2.011-.523.217Zm-11.3,0,.834-2.01-.522-.217-.833,2.011Zm-8.728-8.73.216.523,2.011-.833-.216-.523Zm.216-11.822-.216.522,2.011.833.216-.522Zm8.512-8.207-.521.216.833,2.01.522-.216Z"/> </g> </g>
</svg>