<?xml version="1.0" ?>
<!DOCTYPE svg  PUBLIC '-//W3C//DTD SVG 1.1//EN'  'http://www.w3.org/Graphics/SVG/1.1/DTD/svg11.dtd'>
<!-- Uploaded to: SVG Repo, www.svgrepo.com, Generator: SVG Repo Mixer Tools -->
<svg fill="#000000" width="800px" height="800px" viewBox="0 0 512 512" version="1.1" xml:space="preserve" xmlns="http://www.w3.org/2000/svg" xmlns:xlink="http://www.w3.org/1999/xlink">
<g id="_x37_34_x2C__Key_x2C__lock_x2C__lockpad_x2C__lockpick_x2C__solution">
<g>
<path d="M63.708,474.666c-1.818,0-3.316-1.483-3.316-3.315    c0-1.808,1.499-3.288,3.316-3.288h279.578c1.817,0,3.316,1.48,3.316,3.288c0,1.832-1.499,3.315-3.316,3.315H63.708z     M227.415,484.906c-1.832,0-3.313-1.48-3.313-3.314c0-1.832,1.481-3.314,3.313-3.314H420.88c1.821,0,3.316,1.482,3.316,3.314    c0,1.834-1.495,3.314-3.316,3.314H227.415z M440.677,484.906c-1.817,0-3.313-1.48-3.313-3.314c0-1.832,1.495-3.314,3.313-3.314    h24.191c1.832,0,3.313,1.482,3.313,3.314c0,1.834-1.48,3.314-3.313,3.314H440.677z M52.712,484.609    c-1.835,0-3.317-1.509-3.317-3.314c0-1.832,1.481-3.314,3.317-3.314h91.665c1.818,0,3.313,1.482,3.313,3.314    c0,1.806-1.495,3.314-3.313,3.314H52.712z M40.717,260.042c0,1.834-1.481,3.316-3.316,3.316c-1.832,0-3.313-1.482-3.313-3.316    v-96.649c0-6.093,2.506-11.645,6.521-15.688c4.057-4.043,9.595-6.523,15.688-6.523H88.8c1.818,0,3.313,1.483,3.313,3.315    c0,1.833-1.495,3.316-3.313,3.316H56.295c-4.285,0-8.181,1.751-10.995,4.554c-2.833,2.83-4.583,6.738-4.583,11.025V260.042z     M254.477,129.889l14.069-6.98l-14.069-14.068l-14.07,14.068L254.477,129.889z M254.477,68.734    c35.737,0,64.698,28.947,64.698,64.687c0,22.183-11.144,41.749-28.15,53.392v27.789c0,9.459-7.734,17.194-17.21,17.194h-16.021    v-96.192l31.736-15.713c1.629-0.81,2.303-2.803,1.495-4.421c-0.811-1.644-2.775-2.317-4.422-1.509l-11.806,5.849l-17.976-17.978    c-1.295-1.293-3.397-1.293-4.689,0l-17.993,17.978l-11.802-5.849c-1.632-0.809-3.625-0.135-4.422,1.509    c-0.807,1.618-0.147,3.611,1.495,4.421l31.75,15.713v96.192h-16.035c-9.461,0-17.21-7.735-17.21-17.194v-27.789    c-16.993-11.643-28.15-31.209-28.15-53.392C189.765,97.682,218.736,68.734,254.477,68.734z M302.438,43.885    c0.916-1.592,2.938-2.131,4.517-1.215c1.576,0.918,2.113,2.939,1.211,4.504l-10.079,17.465c-0.916,1.562-2.938,2.102-4.503,1.184    c-1.59-0.916-2.127-2.938-1.211-4.5L302.438,43.885z M340.859,79.893c1.59-0.916,3.611-0.377,4.5,1.213    c0.916,1.563,0.364,3.584-1.211,4.5L326.709,95.66c-1.575,0.916-3.597,0.377-4.502-1.214c-0.902-1.562-0.361-3.583,1.214-4.501    L340.859,79.893z M356.115,130.24c1.832,0,3.313,1.508,3.313,3.314c0,1.834-1.481,3.316-3.313,3.316h-20.134    c-1.821,0-3.316-1.482-3.316-3.316c0-1.807,1.495-3.314,3.316-3.314H356.115z M203.859,47.174c-0.916-1.564-0.375-3.586,1.2-4.504    c1.576-0.916,3.597-0.377,4.513,1.215l10.069,17.438c0.902,1.563,0.361,3.584-1.2,4.5c-1.59,0.918-3.611,0.378-4.527-1.184    L203.859,47.174z M167.852,85.605c-1.576-0.916-2.116-2.938-1.214-4.527c0.916-1.563,2.938-2.102,4.527-1.186l17.438,10.053    c1.565,0.918,2.102,2.939,1.2,4.529c-0.916,1.563-2.938,2.102-4.513,1.186L167.852,85.605z M155.884,136.871    c-1.832,0-3.316-1.482-3.316-3.316c0-1.807,1.485-3.314,3.316-3.314h20.134c1.832,0,3.313,1.508,3.313,3.314    c0,1.834-1.481,3.316-3.313,3.316H155.884z M251.297,30.354c0.014-1.832,1.509-3.288,3.327-3.26    c1.821,0.026,3.274,1.509,3.26,3.341l-0.229,17.142c-0.028,1.832-1.523,3.289-3.341,3.262c-1.821,0-3.274-1.51-3.26-3.315    L251.297,30.354z M268.262,267.859v13.664h-27.584v-13.664h-9.3v-13.666h-9.297v-13.664h64.778v13.664h-9.296v13.666H268.262z     M151.466,291.199h209.068v27.924H151.466V291.199z M190.288,410.194v18.867h131.435v-18.867H190.288z M26.001,410.194h28.192    c-1.362-0.026-2.453-1.132-2.453-2.506V177.137c0-10.403,8.503-18.893,18.895-18.893h116.958c1.067,2.883,2.334,5.687,3.762,8.382    c2.695,5.147,6.008,9.918,9.837,14.203H76.026v206.78h359.962v-206.78H307.733c3.843-4.285,7.156-9.056,9.865-14.203    c1.429-2.695,2.682-5.499,3.748-8.382h120.019c10.392,0,18.895,8.489,18.895,18.893v233.058h25.739v23.126l-121.071,23.259    H147.086L26.001,433.32V410.194z" style="fill-rule:evenodd;clip-rule:evenodd;"/>
</g>
</g>
<g id="Layer_1"/>
</svg>